<svg width="1900" height="666" viewBox="0 0 1900 666" fill="none" xmlns="http://www.w3.org/2000/svg">
<path d="M1444.31 407.125C1444.4 406.251 1445.04 405.536 1445.91 405.364L1451.8 404.184C1453.08 403.93 1454.25 404.934 1454.19 406.229L1443.88 651.826C1443.84 652.897 1442.95 653.742 1441.88 653.742H1421.73C1420.54 653.742 1419.62 652.72 1419.74 651.542L1444.31 407.125Z" fill="white"/>
<path d="M1493.86 400.391C1493.77 399.075 1494.96 398.033 1496.25 398.292L1502.09 399.459C1502.94 399.63 1503.59 400.337 1503.68 401.205L1530.85 651.526C1530.98 652.709 1530.05 653.742 1528.86 653.742H1513.27C1512.22 653.742 1511.34 652.929 1511.27 651.88L1493.86 400.391Z" fill="white"/>
<path d="M434.811 20.0315L460 15L433.132 654H371L434.811 20.0315Z" fill="white"/>
<path d="M560.001 0L585.264 5.03077L656.001 654H605.474L560.001 0Z" fill="white"/>
<path d="M581.001 105.537L1078.47 508.139" stroke="white" stroke-width="6"/>
<path fill-rule="evenodd" clip-rule="evenodd" d="M1900 646.356L0.000610352 407.105V295.552L1900 637.471V646.356Z" fill="white"/>
<path d="M1447 447L1033.26 496.983" stroke="white" stroke-width="4"/>
<line x1="582.407" y1="96.2081" x2="865.407" y2="476.208" stroke="white" stroke-width="6"/>
<line x1="1447.96" y1="443.753" x2="1263.96" y2="544.753" stroke="white" stroke-width="4"/>
<line x1="582.827" y1="96.9956" x2="706.828" y2="445.996" stroke="white" stroke-width="6"/>
<line x1="1447.77" y1="442.931" x2="1386.77" y2="558.931" stroke="white" stroke-width="4"/>
<line x1="583.636" y1="99.5661" x2="774.636" y2="450.566" stroke="white" stroke-width="6"/>
<line x1="582.097" y1="106.854" x2="971.097" y2="486.854" stroke="white" stroke-width="6"/>
<path d="M440 112.537L937.474 515.139" stroke="white" stroke-width="6"/>
<line x1="444.406" y1="105.848" x2="727.406" y2="485.848" stroke="white" stroke-width="6"/>
<line x1="444.827" y1="106.635" x2="568.827" y2="455.635" stroke="white" stroke-width="6"/>
<line x1="445.635" y1="109.205" x2="636.635" y2="460.205" stroke="white" stroke-width="6"/>
<line x1="443.107" y1="111.864" x2="833.107" y2="496.503" stroke="white" stroke-width="6"/>
<path d="M1499.5 436.596L1745.57 622.764" stroke="white" stroke-width="4"/>
<path d="M1500.92 436.269L1631 600" stroke="white" stroke-width="4"/>
<path d="M1501.18 436.781L1559 587" stroke="white" stroke-width="4"/>
<path d="M1501.48 437.668L1592.5 593" stroke="white" stroke-width="4"/>
<path d="M1501.99 437.212L1684.5 609" stroke="white" stroke-width="4"/>
<path d="M1442.22 440.332L1660.02 605.001" stroke="white" stroke-width="4"/>
<line y1="-2" x2="188.414" y2="-2" transform="matrix(0.623476 0.781842 -0.820959 0.570987 1442 441.147)" stroke="white" stroke-width="4"/>
<line y1="-2" x2="144.753" y2="-2" transform="matrix(0.355583 0.934645 -0.949114 0.314932 1442 441.147)" stroke="white" stroke-width="4"/>
<path d="M1444.2 441.404L1525 580.5" stroke="white" stroke-width="4"/>
<path d="M1444.71 440.949L1612.5 597.5" stroke="white" stroke-width="4"/>
<line x1="1504.95" y1="440.432" x2="1473.95" y2="580.432" stroke="white" stroke-width="4"/>
<line x1="1504.67" y1="440.095" x2="1417.67" y2="573.095" stroke="white" stroke-width="4"/>
<line x1="1503.95" y1="438.76" x2="1301.95" y2="547.76" stroke="white" stroke-width="4"/>
<line x1="1503.42" y1="436.956" x2="1114.42" y2="519.956" stroke="white" stroke-width="4"/>
<line x1="1503.54" y1="436.925" x2="1142.54" y2="538.925" stroke="white" stroke-width="4"/>
<line x1="587.848" y1="113.946" x2="489.848" y2="408.946" stroke="white" stroke-width="6"/>
<line x1="438.774" y1="119.142" x2="333.774" y2="374.142" stroke="white" stroke-width="6"/>
<line x1="439.929" y1="114.298" x2="159.929" y2="349.298" stroke="white" stroke-width="6"/>
<line x1="590.77" y1="112.422" x2="241.77" y2="367.422" stroke="white" stroke-width="6"/>
<line x1="438.299" y1="116.704" x2="7.29881" y2="323.704" stroke="white" stroke-width="6"/>
<line x1="592.222" y1="111.74" x2="58.2219" y2="349.74" stroke="white" stroke-width="6"/>
<line x1="444.277" y1="119.953" x2="239.277" y2="358.953" stroke="white" stroke-width="6"/>
<line x1="586.379" y1="119.828" x2="380.379" y2="387.828" stroke="white" stroke-width="6"/>
<line x1="442.689" y1="118.92" x2="-53.3113" y2="235.92" stroke="white" stroke-width="6"/>
<line x1="584.794" y1="115.893" x2="-46.2062" y2="288.893" stroke="white" stroke-width="6"/>
<rect x="0.000610352" y="652" width="1900" height="14" fill="white"/>
</svg>
