<svg width="238" height="233" viewBox="0 0 238 233" fill="none" xmlns="http://www.w3.org/2000/svg">
<path d="M40.46 68.8911L21.0009 61.2061L33.261 77.2382L32.2952 79.6685L12.6261 83.0112L31.8172 90.6382L29.7689 95.7921L0.437575 84.1351L2.21944 79.6516L26.2328 75.7551L11.3951 56.5637L13.1603 52.1222L42.5249 63.6953L40.46 68.8911Z" fill="white"/>
<path d="M52.2925 54.2729C50.6751 56.0929 48.8243 57.3838 46.7399 58.1455C44.6556 58.9071 42.5475 59.0847 40.4156 58.6781C38.2811 58.229 36.3264 57.2158 34.5513 55.6383C32.7762 54.0609 31.5515 52.2487 30.8772 50.2018C30.2229 48.1325 30.1514 46.0181 30.6629 43.8587C31.1743 41.6993 32.2387 39.7096 33.8561 37.8895C35.4934 36.047 37.3543 34.7449 39.4386 33.9833C41.523 33.2216 43.6211 33.0553 45.733 33.4844C47.865 33.891 49.8185 34.883 51.5936 36.4604C53.3687 38.0379 54.5946 39.8713 55.2714 41.9606C55.9457 44.0075 56.0271 46.1106 55.5157 48.27C55.0042 50.4294 53.9298 52.4304 52.2925 54.2729ZM48.6861 51.0681C50.0639 49.5177 50.6852 47.7777 50.5502 45.848C50.4151 43.9184 49.5049 42.2048 47.8197 40.7072C46.1345 39.2096 44.3258 38.5072 42.3936 38.5998C40.4615 38.6924 38.8066 39.514 37.4288 41.0644C36.051 42.6148 35.4297 44.3548 35.5648 46.2844C35.7198 48.1916 36.6399 49.894 38.3251 51.3916C40.0104 52.8891 41.8091 53.6028 43.7212 53.5327C45.6534 53.44 47.3083 52.6185 48.6861 51.0681Z" fill="white"/>
<path d="M67.1304 17.2885L60.154 22.0238L70.9922 37.9913L66.3288 41.1567L55.4906 25.1892L48.4768 29.9499L45.7926 25.9953L64.4462 13.3339L67.1304 17.2885Z" fill="white"/>
<path d="M88.136 30.0455C85.8472 30.8758 83.6049 31.1296 81.4094 30.8069C79.2138 30.4842 77.2755 29.6365 75.5944 28.2638C73.9313 26.8526 72.6949 25.0308 71.885 22.7985C71.0752 20.5661 70.8611 18.3894 71.2429 16.2683C71.6528 14.1371 72.5968 12.2438 74.0748 10.5884C75.5528 8.93309 77.4362 7.69025 79.7251 6.85992C82.0422 6.01933 84.2986 5.7604 86.4941 6.08311C88.6897 6.40582 90.6139 7.25865 92.2667 8.64159C93.9478 10.0143 95.1933 11.8168 96.0031 14.0492C96.8129 16.2816 97.018 18.4775 96.6183 20.6371C96.2365 22.7581 95.3067 24.6463 93.8287 26.3016C92.3507 27.957 90.4532 29.2049 88.136 30.0455ZM86.4908 25.5101C88.4405 24.8028 89.8155 23.5686 90.6155 21.8074C91.4156 20.0462 91.4312 18.106 90.6624 15.9866C89.8935 13.8673 88.6376 12.3884 86.8944 11.5498C85.1513 10.7112 83.3048 10.6456 81.355 11.3529C79.4052 12.0602 78.0303 13.2945 77.2302 15.0556C76.4584 16.8065 76.4569 18.7417 77.2258 20.861C77.9946 22.9803 79.2364 24.4644 80.9513 25.3132C82.6945 26.1518 84.541 26.2174 86.4908 25.5101Z" fill="white"/>
<path d="M135.508 0.449033L135.568 24.5268L100.082 24.6144L100.023 0.536588L105.659 0.522673L105.707 19.821L115.04 19.798L114.993 0.499661L120.629 0.485746L120.676 19.7841L129.92 19.7613L129.872 0.462945L135.508 0.449033Z" fill="white"/>
<path d="M150.414 20.5478L146.29 19.089L143.072 28.1857L137.758 26.3058L145.789 3.60665L151.103 5.4865L147.854 14.6682L152.105 16.1721L162.07 9.36654L167.766 11.3818L155.654 19.3887L160.288 34.2764L154.039 32.0657L150.414 20.5478Z" fill="white"/>
<path d="M168.243 40.8811C166.25 39.4824 164.756 37.7913 163.761 35.8077C162.766 33.8241 162.349 31.75 162.509 29.5856C162.711 27.4138 163.494 25.3561 164.859 23.4123C166.223 21.4685 167.883 20.0447 169.839 19.1408C171.82 18.2542 173.913 17.9416 176.116 18.2028C178.32 18.4641 180.419 19.2941 182.411 20.6928C184.429 22.1088 185.935 23.8086 186.93 25.7921C187.925 27.7758 188.33 29.8411 188.145 31.9883C187.985 34.1527 187.223 36.2068 185.859 38.1506C184.495 40.0944 182.813 41.5219 180.815 42.4331C178.859 43.337 176.779 43.6582 174.575 43.397C172.371 43.1357 170.261 42.2971 168.243 40.8811ZM171.015 36.932C172.712 38.1235 174.512 38.5419 176.414 38.1871C178.315 37.8324 179.913 36.7323 181.208 34.887C182.504 33.0416 182.995 31.1644 182.682 29.2555C182.369 27.3467 181.364 25.7965 179.666 24.605C177.968 23.4135 176.168 22.9951 174.267 23.3499C172.39 23.7219 170.804 24.8306 169.509 26.676C168.214 28.5213 167.71 30.3898 167.999 32.2814C168.312 34.1903 169.317 35.7405 171.015 36.932Z" fill="white"/>
<path d="M211.883 50.7825L193.159 65.9211L189.616 61.5382L204.623 49.4047L198.953 42.3922L195.094 45.2219C192.522 47.1084 190.253 48.5567 188.286 49.5668C186.362 50.5814 184.578 51.0765 182.935 51.0522C181.334 51.0323 179.967 50.3211 178.833 48.9186C178.303 48.2641 177.78 47.3537 177.262 46.1874L181.114 43.4211C181.308 43.8051 181.5 44.1139 181.689 44.3477C182.407 45.236 183.296 45.6186 184.357 45.4958C185.441 45.354 186.521 44.9447 187.597 44.2678C188.715 43.5954 190.236 42.5594 192.158 41.1598L199.636 35.6354L211.883 50.7825Z" fill="white"/>
<path d="M220.383 66.9455C221.81 70.1927 222.115 73.0141 221.296 75.4097C220.517 77.8208 218.559 79.7158 215.422 81.0947L202.502 86.7736L200.361 81.9028L203.044 80.7235C201.802 80.5139 200.66 79.9324 199.617 78.9789C198.614 78.0408 197.749 76.7462 197.024 75.0951C196.298 73.444 195.938 71.8783 195.944 70.398C195.978 68.9057 196.339 67.5978 197.027 66.4744C197.755 65.3664 198.752 64.5342 200.018 63.9778C201.999 63.1069 203.902 63.1406 205.726 64.079C207.59 65.0328 209.218 67.092 210.609 70.2567L213.113 75.9531L213.443 75.8079C214.984 75.1305 215.961 74.1426 216.376 72.8441C216.802 71.5731 216.616 70.0295 215.818 68.2133C215.274 66.9749 214.543 65.835 213.625 64.7935C212.72 63.7795 211.742 63.011 210.691 62.4878L213.558 58.8141C214.947 59.5828 216.232 60.6762 217.413 62.0942C218.595 63.5121 219.585 65.1293 220.383 66.9455ZM201.252 74.5173C201.82 75.8107 202.611 76.8257 203.624 77.5623C204.677 78.3144 205.845 78.655 207.127 78.5839L209.686 77.459L207.346 72.1341C206.04 69.1621 204.409 68.1055 202.456 68.9643C201.52 69.3755 200.94 70.0736 200.716 71.0585C200.493 72.0434 200.671 73.1964 201.252 74.5173Z" fill="white"/>
<path d="M213.109 119.088L212.889 103.308L205.542 100.299L205.458 94.2573L237.215 108.019L237.296 113.79L205.935 128.477L205.849 122.345L213.109 119.088ZM217.681 117.085L231.394 110.941L217.515 105.227L217.681 117.085Z" fill="white"/>
<path d="M224.306 147.998C223.6 150.234 222.484 152.073 220.958 153.514C219.423 154.984 217.608 155.941 215.514 156.383C213.421 156.826 211.213 156.681 208.891 155.949C206.568 155.216 204.663 154.064 203.173 152.491C201.712 150.927 200.775 149.102 200.361 147.018C199.937 144.961 200.078 142.815 200.784 140.579C201.76 137.483 203.565 135.358 206.199 134.202L195.062 130.69L196.757 125.314L228.062 135.188L226.448 140.306L223.438 139.356C224.247 140.588 224.721 141.935 224.858 143.397C224.987 144.888 224.803 146.421 224.306 147.998ZM205.575 141.428C204.951 143.406 205.099 145.234 206.02 146.911C206.932 148.617 208.463 149.81 210.613 150.488C212.763 151.166 214.701 151.068 216.427 150.194C218.143 149.348 219.313 147.937 219.937 145.958C220.344 144.668 220.409 143.412 220.133 142.191C219.885 140.978 219.311 139.898 218.412 138.953C217.512 138.007 216.346 137.308 214.913 136.856C213.479 136.404 212.123 136.307 210.844 136.566C209.564 136.824 208.461 137.374 207.533 138.217C206.635 139.068 205.982 140.138 205.575 141.428Z" fill="white"/>
<path d="M202.405 179.335L206.909 172.207L190.594 161.899L193.604 157.134L209.919 167.442L214.447 160.275L218.488 162.828L206.446 181.888L202.405 179.335Z" fill="white"/>
<path d="M186.48 201.919L176.434 175.405C175.366 172.796 175.005 170.591 175.349 168.789C175.673 166.965 176.6 165.31 178.131 163.822C178.993 162.985 179.981 162.297 181.094 161.761C182.207 161.224 183.274 160.942 184.295 160.914L185.569 165.46C184.825 165.471 184.089 165.619 183.362 165.907C182.614 166.215 181.97 166.631 181.431 167.154C180.72 167.846 180.316 168.594 180.219 169.401C180.101 170.228 180.267 171.261 180.717 172.501L181.085 173.463L205.462 183.475L201.258 187.56L183.414 180.065L190.36 198.149L186.48 201.919Z" fill="white"/>
<path d="M169.538 212.153C167.475 213.266 165.393 213.808 163.294 213.778C161.169 213.763 159.201 213.185 157.39 212.044C155.58 210.903 154.096 209.26 152.941 207.117C151.785 204.974 151.221 202.819 151.249 200.653C151.29 198.513 151.889 196.552 153.044 194.767C154.173 192.998 155.77 191.556 157.833 190.444C160.691 188.903 163.467 188.636 166.161 189.642L160.618 179.363L165.58 176.688L181.158 205.581L176.435 208.128L174.937 205.349C174.659 206.797 174.06 208.093 173.14 209.238C172.194 210.397 170.994 211.369 169.538 212.153ZM160.679 194.391C158.853 195.375 157.686 196.79 157.178 198.634C156.644 200.494 156.911 202.415 157.981 204.4C159.051 206.384 160.51 207.664 162.357 208.239C164.177 208.828 166 208.631 167.826 207.647C169.016 207.005 169.938 206.149 170.591 205.08C171.258 204.037 171.599 202.863 171.612 201.558C171.626 200.253 171.276 198.939 170.563 197.616C169.849 196.293 168.944 195.279 167.846 194.573C166.748 193.867 165.573 193.493 164.321 193.451C163.084 193.436 161.869 193.749 160.679 194.391Z" fill="white"/>
<path d="M142.703 222.011C139.24 222.778 136.413 222.527 134.223 221.258C132.009 220.024 130.532 217.735 129.79 214.389L126.736 200.61L131.931 199.459L132.565 202.32C133.012 201.144 133.805 200.137 134.943 199.299C136.059 198.498 137.497 197.902 139.258 197.512C141.019 197.121 142.625 197.073 144.075 197.367C145.533 197.691 146.745 198.3 147.713 199.194C148.658 200.123 149.28 201.263 149.579 202.613C150.048 204.726 149.644 206.586 148.368 208.193C147.07 209.835 144.733 211.031 141.358 211.779L135.283 213.125L135.361 213.477C135.726 215.121 136.504 216.272 137.697 216.932C138.861 217.597 140.411 217.715 142.348 217.286C143.669 216.993 144.929 216.498 146.129 215.801C147.3 215.111 148.245 214.301 148.962 213.372L152.007 216.9C150.983 218.112 149.66 219.16 148.039 220.043C146.419 220.925 144.64 221.581 142.703 222.011ZM139.001 201.771C137.622 202.077 136.472 202.655 135.553 203.506C134.61 204.392 134.048 205.471 133.868 206.742L134.473 209.472L140.152 208.213C143.322 207.51 144.675 206.117 144.214 204.033C143.992 203.036 143.421 202.331 142.498 201.92C141.576 201.508 140.41 201.459 139.001 201.771Z" fill="white"/>
<path d="M100.282 212.219L106.055 213.237L108.365 200.138L114.048 201.14L108.568 232.223L102.884 231.221L105.178 218.21L99.2278 217.161L88.0083 228.598L81.8805 227.518L95.1475 214.336L86.9617 196.364L93.4891 197.515L100.282 212.219Z" fill="white"/>
<path d="M69.2449 213.797C66.0577 212.241 64.0028 210.283 63.0801 207.926C62.1172 205.582 62.3877 202.871 63.8916 199.792L70.0852 187.11L74.8661 189.445L73.5799 192.079C74.6628 191.437 75.9103 191.143 77.3224 191.197C78.6943 191.265 80.1906 191.695 81.8112 192.486C83.4318 193.278 84.7179 194.24 85.6696 195.374C86.608 196.535 87.1774 197.767 87.3777 199.069C87.5379 200.385 87.3145 201.664 86.7077 202.906C85.7579 204.851 84.2836 206.055 82.2847 206.517C80.2457 206.993 77.6731 206.473 74.5669 204.955L68.9758 202.225L68.8175 202.549C68.0787 204.061 67.9707 205.447 68.4932 206.706C68.9888 207.952 70.128 209.01 71.9106 209.88C73.1261 210.474 74.4204 210.872 75.7936 211.074C77.1397 211.263 78.3828 211.218 79.5229 210.939L79.7075 215.595C78.1509 215.906 76.4637 215.901 74.6458 215.582C72.8279 215.263 71.0276 214.668 69.2449 213.797ZM78.9571 195.659C77.6876 195.039 76.4282 194.775 75.1787 194.867C73.8891 194.973 72.7779 195.467 71.8451 196.35L70.6182 198.862L75.8447 201.415C78.7618 202.839 80.6887 202.593 81.6253 200.675C82.0739 199.757 82.0654 198.849 81.6 197.953C81.1345 197.057 80.2536 196.292 78.9571 195.659Z" fill="white"/>
<path d="M35.6134 189.423L51.5411 171.366L55.7679 175.094L43.0019 189.567L49.7647 195.532L53.0955 192.097C55.316 189.807 57.3112 188 59.081 186.675C60.8085 185.353 62.4843 184.566 64.1084 184.315C65.6902 184.067 67.1573 184.54 68.5099 185.733C69.1411 186.289 69.8095 187.099 70.515 188.163L67.1802 191.534C66.9243 191.188 66.6836 190.916 66.4582 190.717C65.6015 189.961 64.6608 189.733 63.6359 190.031C62.5912 190.352 61.5949 190.936 60.647 191.784C59.6567 192.634 58.331 193.91 56.6699 195.611L50.2212 202.308L35.6134 189.423Z" fill="white"/>
<path d="M29.2443 182.185L26.2505 177.41L39.6978 168.979L19.185 166.14L16.4547 161.785L36.8549 148.995L39.8487 153.77L26.4014 162.201L46.8902 165.002L49.6445 169.395L29.2443 182.185Z" fill="white"/>
<path d="M12.5805 152.772L11.1159 147.329L20.5642 144.787L17.4124 133.074L7.96406 135.617L6.49942 130.174L29.7502 123.917L31.2148 129.36L22.0277 131.832L25.1796 143.545L34.3666 141.072L35.8313 146.515L12.5805 152.772Z" fill="white"/>
<path d="M5.46979 111.861C5.51535 108.314 6.40676 105.62 8.14397 103.779C9.8515 101.907 12.4185 100.993 15.8451 101.037L29.957 101.218L29.8886 106.538L26.958 106.501C28.0012 107.205 28.8 108.208 29.3544 109.508C29.8793 110.777 30.1301 112.313 30.1069 114.117C30.0837 115.92 29.7629 117.494 29.1443 118.839C28.4958 120.184 27.6256 121.225 26.5339 121.962C25.4125 122.669 24.1605 123.014 22.7779 122.996C20.6137 122.968 18.8957 122.15 17.6237 120.54C16.322 118.9 15.6934 116.352 15.7378 112.895L15.8178 106.673L15.4571 106.669C13.7738 106.647 12.4748 107.141 11.56 108.152C10.6455 109.132 10.1755 110.614 10.15 112.598C10.1327 113.95 10.3259 115.291 10.7297 116.619C11.1339 117.916 11.7059 119.021 12.4457 119.932L8.31455 122.089C7.36893 120.814 6.65202 119.287 6.16383 117.507C5.67565 115.727 5.4443 113.845 5.46979 111.861ZM26.0191 112.892C26.0373 111.479 25.7377 110.228 25.1204 109.138C24.4734 108.017 23.5517 107.223 22.3552 106.757L19.5599 106.721L19.4851 112.537C19.4434 115.784 20.4896 117.42 22.6237 117.448C23.6456 117.461 24.4624 117.066 25.074 116.262C25.6855 115.458 26.0006 114.335 26.0191 112.892Z" fill="white"/>
</svg>
