<svg width="276" height="272" viewBox="0 0 276 272" fill="none" xmlns="http://www.w3.org/2000/svg">
<path d="M98.2455 159.053C96.2023 163.752 91.9321 173.458 91.1965 174.683H105.601L132.877 114.307V174.683H146.362V99.5965H125.522L98.2455 159.053Z" fill="white"/>
<path d="M114.442 151.411H141.412H142.025L142.211 138.539H120.339L114.442 151.411Z" fill="white"/>
<path d="M146.232 138.912V144.123V150.865L166.498 174.8H184.235L158.798 144.123L183.316 99.5965H168.299L146.232 138.912Z" fill="white"/>
<path d="M62.46 89.8911L43.0009 82.2061L55.261 98.2382L54.2952 100.669L34.6261 104.011L53.8172 111.638L51.7689 116.792L22.4376 105.135L24.2194 100.652L48.2328 96.7551L33.3951 77.5637L35.1603 73.1222L64.5249 84.6953L62.46 89.8911Z" fill="white"/>
<path d="M74.2925 75.2729C72.6751 77.0929 70.8243 78.3838 68.7399 79.1455C66.6556 79.9071 64.5475 80.0847 62.4156 79.6781C60.2811 79.229 58.3264 78.2158 56.5513 76.6383C54.7762 75.0609 53.5515 73.2487 52.8772 71.2018C52.2229 69.1325 52.1514 67.0181 52.6629 64.8587C53.1743 62.6993 54.2387 60.7096 55.8561 58.8895C57.4934 57.047 59.3543 55.7449 61.4386 54.9833C63.523 54.2216 65.6211 54.0553 67.733 54.4844C69.865 54.891 71.8185 55.883 73.5936 57.4604C75.3687 59.0379 76.5946 60.8713 77.2714 62.9606C77.9457 65.0075 78.0271 67.1106 77.5157 69.27C77.0042 71.4294 75.9298 73.4304 74.2925 75.2729ZM70.6861 72.0681C72.0639 70.5177 72.6852 68.7777 72.5502 66.848C72.4151 64.9184 71.5049 63.2048 69.8197 61.7072C68.1345 60.2096 66.3258 59.5072 64.3936 59.5998C62.4615 59.6924 60.8066 60.514 59.4288 62.0644C58.051 63.6148 57.4297 65.3548 57.5648 67.2844C57.7198 69.1916 58.6399 70.894 60.3251 72.3916C62.0104 73.8891 63.8091 74.6028 65.7212 74.5327C67.6534 74.44 69.3083 73.6185 70.6861 72.0681Z" fill="white"/>
<path d="M89.1304 38.2885L82.154 43.0238L92.9922 58.9913L88.3288 62.1567L77.4906 46.1892L70.4768 50.9499L67.7926 46.9953L86.4462 34.3339L89.1304 38.2885Z" fill="white"/>
<path d="M110.136 51.0455C107.847 51.8758 105.605 52.1296 103.409 51.8069C101.214 51.4842 99.2755 50.6365 97.5944 49.2638C95.9313 47.8526 94.6949 46.0308 93.885 43.7985C93.0752 41.5661 92.8611 39.3894 93.2429 37.2683C93.6528 35.1371 94.5968 33.2438 96.0748 31.5884C97.5528 29.9331 99.4362 28.6903 101.725 27.8599C104.042 27.0193 106.299 26.7604 108.494 27.0831C110.69 27.4058 112.614 28.2586 114.267 29.6416C115.948 31.0143 117.193 32.8168 118.003 35.0492C118.813 37.2816 119.018 39.4775 118.618 41.6371C118.237 43.7581 117.307 45.6463 115.829 47.3016C114.351 48.957 112.453 50.2049 110.136 51.0455ZM108.491 46.5101C110.441 45.8028 111.815 44.5686 112.616 42.8074C113.416 41.0462 113.431 39.106 112.662 36.9866C111.894 34.8673 110.638 33.3884 108.894 32.5498C107.151 31.7112 105.305 31.6456 103.355 32.3529C101.405 33.0602 100.03 34.2945 99.2302 36.0556C98.4584 37.8065 98.4569 39.7417 99.2258 41.861C99.9946 43.9803 101.236 45.4644 102.951 46.3132C104.694 47.1518 106.541 47.2174 108.491 46.5101Z" fill="white"/>
<path d="M157.508 21.449L157.568 45.5268L122.082 45.6144L122.023 21.5366L127.659 21.5227L127.707 40.821L137.04 40.798L136.993 21.4997L142.629 21.4857L142.676 40.7841L151.92 40.7613L151.872 21.4629L157.508 21.449Z" fill="white"/>
<path d="M172.414 41.5478L168.29 40.089L165.072 49.1857L159.758 47.3058L167.789 24.6067L173.103 26.4865L169.854 35.6682L174.105 37.1721L184.07 30.3665L189.766 32.3818L177.654 40.3887L182.288 55.2764L176.039 53.0657L172.414 41.5478Z" fill="white"/>
<path d="M190.243 61.8811C188.25 60.4824 186.756 58.7913 185.761 56.8077C184.766 54.8241 184.349 52.75 184.509 50.5856C184.711 48.4138 185.494 46.3561 186.859 44.4123C188.223 42.4685 189.883 41.0447 191.839 40.1408C193.82 39.2542 195.913 38.9416 198.116 39.2028C200.32 39.4641 202.419 40.2941 204.411 41.6928C206.429 43.1088 207.935 44.8086 208.93 46.7921C209.925 48.7758 210.33 50.8411 210.145 52.9883C209.985 55.1527 209.223 57.2068 207.859 59.1506C206.495 61.0944 204.813 62.5219 202.815 63.4331C200.859 64.337 198.779 64.6582 196.575 64.397C194.371 64.1357 192.261 63.2971 190.243 61.8811ZM193.015 57.932C194.712 59.1235 196.512 59.5419 198.414 59.1871C200.315 58.8324 201.913 57.7323 203.208 55.887C204.504 54.0416 204.995 52.1644 204.682 50.2555C204.369 48.3467 203.364 46.7965 201.666 45.605C199.968 44.4135 198.168 43.9951 196.267 44.3499C194.39 44.7219 192.804 45.8306 191.509 47.676C190.214 49.5213 189.71 51.3898 189.999 53.2814C190.312 55.1903 191.317 56.7405 193.015 57.932Z" fill="white"/>
<path d="M233.883 71.7825L215.159 86.9211L211.616 82.5382L226.623 70.4047L220.953 63.3922L217.094 66.2219C214.522 68.1084 212.253 69.5567 210.286 70.5668C208.362 71.5814 206.578 72.0765 204.935 72.0522C203.334 72.0323 201.967 71.3211 200.833 69.9186C200.303 69.2641 199.78 68.3537 199.262 67.1874L203.114 64.4211C203.308 64.8051 203.5 65.1139 203.689 65.3477C204.407 66.236 205.296 66.6186 206.357 66.4958C207.441 66.354 208.521 65.9447 209.597 65.2678C210.715 64.5954 212.236 63.5594 214.158 62.1598L221.636 56.6354L233.883 71.7825Z" fill="white"/>
<path d="M242.383 87.9455C243.81 91.1927 244.115 94.0141 243.296 96.4097C242.517 98.8208 240.559 100.716 237.422 102.095L224.502 107.774L222.361 102.903L225.044 101.723C223.802 101.514 222.66 100.932 221.617 99.9789C220.614 99.0408 219.749 97.7462 219.024 96.0951C218.298 94.444 217.938 92.8783 217.944 91.398C217.978 89.9057 218.339 88.5978 219.027 87.4744C219.755 86.3664 220.752 85.5342 222.018 84.9778C223.999 84.1069 225.902 84.1406 227.726 85.079C229.59 86.0328 231.218 88.092 232.609 91.2567L235.113 96.9531L235.443 96.8079C236.984 96.1305 237.961 95.1426 238.376 93.8441C238.802 92.5731 238.616 91.0295 237.818 89.2133C237.274 87.9749 236.543 86.835 235.625 85.7935C234.72 84.7795 233.742 84.011 232.691 83.4878L235.558 79.8141C236.947 80.5828 238.232 81.6762 239.413 83.0942C240.595 84.5121 241.585 86.1293 242.383 87.9455ZM223.252 95.5173C223.82 96.8107 224.611 97.8257 225.624 98.5623C226.677 99.3144 227.845 99.655 229.127 99.5839L231.686 98.459L229.346 93.1341C228.04 90.1621 226.409 89.1055 224.456 89.9643C223.52 90.3755 222.94 91.0736 222.716 92.0585C222.493 93.0434 222.671 94.1964 223.252 95.5173Z" fill="white"/>
<path d="M235.109 140.088L234.889 124.308L227.542 121.299L227.458 115.257L259.215 129.019L259.296 134.79L227.935 149.477L227.849 143.345L235.109 140.088ZM239.681 138.085L253.394 131.941L239.515 126.227L239.681 138.085Z" fill="white"/>
<path d="M246.306 168.998C245.6 171.234 244.484 173.073 242.958 174.514C241.423 175.984 239.608 176.941 237.514 177.383C235.421 177.826 233.213 177.681 230.891 176.949C228.568 176.216 226.663 175.064 225.173 173.491C223.712 171.927 222.775 170.102 222.361 168.018C221.937 165.961 222.078 163.815 222.784 161.579C223.76 158.483 225.565 156.358 228.199 155.202L217.062 151.69L218.757 146.314L250.062 156.188L248.448 161.306L245.438 160.356C246.247 161.588 246.721 162.935 246.858 164.397C246.987 165.888 246.803 167.421 246.306 168.998ZM227.575 162.428C226.951 164.406 227.099 166.234 228.02 167.911C228.932 169.617 230.463 170.81 232.613 171.488C234.763 172.166 236.701 172.068 238.427 171.194C240.143 170.348 241.313 168.937 241.937 166.958C242.344 165.668 242.409 164.412 242.133 163.191C241.885 161.978 241.311 160.898 240.412 159.953C239.512 159.007 238.346 158.308 236.913 157.856C235.479 157.404 234.123 157.307 232.844 157.566C231.564 157.824 230.461 158.374 229.533 159.217C228.635 160.068 227.982 161.138 227.575 162.428Z" fill="white"/>
<path d="M224.405 200.335L228.909 193.207L212.594 182.899L215.604 178.134L231.919 188.442L236.447 181.275L240.488 183.828L228.446 202.888L224.405 200.335Z" fill="white"/>
<path d="M208.48 222.919L198.434 196.405C197.366 193.796 197.005 191.591 197.349 189.789C197.673 187.965 198.6 186.31 200.131 184.822C200.993 183.985 201.981 183.297 203.094 182.761C204.207 182.224 205.274 181.942 206.295 181.914L207.569 186.46C206.825 186.471 206.089 186.619 205.362 186.907C204.614 187.215 203.97 187.631 203.431 188.154C202.72 188.846 202.316 189.594 202.219 190.401C202.101 191.228 202.267 192.261 202.717 193.501L203.085 194.463L227.462 204.475L223.258 208.56L205.414 201.065L212.36 219.149L208.48 222.919Z" fill="white"/>
<path d="M191.538 233.153C189.475 234.266 187.393 234.808 185.294 234.778C183.169 234.763 181.201 234.185 179.39 233.044C177.58 231.903 176.096 230.26 174.941 228.117C173.785 225.974 173.221 223.819 173.249 221.653C173.29 219.513 173.889 217.552 175.044 215.767C176.173 213.998 177.77 212.556 179.833 211.444C182.691 209.903 185.467 209.636 188.161 210.642L182.618 200.363L187.58 197.688L203.158 226.581L198.435 229.128L196.937 226.349C196.659 227.797 196.06 229.093 195.14 230.238C194.194 231.397 192.994 232.369 191.538 233.153ZM182.679 215.391C180.853 216.375 179.686 217.79 179.178 219.634C178.644 221.494 178.911 223.415 179.981 225.4C181.051 227.384 182.51 228.664 184.357 229.239C186.177 229.828 188 229.631 189.826 228.647C191.016 228.005 191.938 227.149 192.591 226.08C193.258 225.037 193.599 223.863 193.612 222.558C193.626 221.253 193.276 219.939 192.563 218.616C191.849 217.293 190.944 216.279 189.846 215.573C188.748 214.867 187.573 214.493 186.321 214.451C185.084 214.436 183.869 214.749 182.679 215.391Z" fill="white"/>
<path d="M164.703 243.011C161.24 243.778 158.413 243.527 156.223 242.258C154.009 241.024 152.532 238.735 151.79 235.389L148.736 221.61L153.931 220.459L154.565 223.32C155.012 222.144 155.805 221.137 156.943 220.299C158.059 219.498 159.497 218.902 161.258 218.512C163.019 218.121 164.625 218.073 166.075 218.367C167.533 218.691 168.745 219.3 169.713 220.194C170.658 221.123 171.28 222.263 171.579 223.613C172.048 225.726 171.644 227.586 170.368 229.193C169.07 230.835 166.733 232.031 163.358 232.779L157.283 234.125L157.361 234.477C157.726 236.121 158.504 237.272 159.697 237.932C160.861 238.597 162.411 238.715 164.348 238.286C165.669 237.993 166.929 237.498 168.129 236.801C169.3 236.111 170.245 235.301 170.962 234.372L174.007 237.9C172.983 239.112 171.66 240.16 170.039 241.043C168.419 241.925 166.64 242.581 164.703 243.011ZM161.001 222.771C159.622 223.077 158.472 223.655 157.553 224.506C156.61 225.392 156.048 226.471 155.868 227.742L156.473 230.472L162.152 229.213C165.322 228.51 166.675 227.117 166.214 225.033C165.992 224.036 165.421 223.331 164.498 222.92C163.576 222.508 162.41 222.459 161.001 222.771Z" fill="white"/>
<path d="M122.282 233.219L128.055 234.237L130.365 221.138L136.048 222.14L130.568 253.223L124.884 252.221L127.178 239.21L121.228 238.161L110.008 249.598L103.88 248.518L117.147 235.336L108.962 217.364L115.489 218.515L122.282 233.219Z" fill="white"/>
<path d="M91.2449 234.797C88.0577 233.241 86.0028 231.283 85.0801 228.926C84.1172 226.582 84.3877 223.871 85.8916 220.792L92.0852 208.11L96.8661 210.445L95.5799 213.079C96.6628 212.437 97.9103 212.143 99.3224 212.197C100.694 212.265 102.191 212.695 103.811 213.486C105.432 214.278 106.718 215.24 107.67 216.374C108.608 217.535 109.177 218.767 109.378 220.069C109.538 221.385 109.315 222.664 108.708 223.906C107.758 225.851 106.284 227.055 104.285 227.517C102.246 227.993 99.6731 227.473 96.5669 225.955L90.9758 223.225L90.8175 223.549C90.0787 225.061 89.9707 226.447 90.4932 227.706C90.9888 228.952 92.128 230.01 93.9106 230.88C95.1261 231.474 96.4204 231.872 97.7936 232.074C99.1397 232.263 100.383 232.218 101.523 231.939L101.707 236.595C100.151 236.906 98.4637 236.901 96.6458 236.582C94.8279 236.263 93.0276 235.668 91.2449 234.797ZM100.957 216.659C99.6876 216.039 98.4282 215.775 97.1787 215.867C95.8891 215.973 94.7779 216.467 93.8451 217.35L92.6182 219.862L97.8447 222.415C100.762 223.839 102.689 223.593 103.625 221.675C104.074 220.757 104.065 219.849 103.6 218.953C103.135 218.057 102.254 217.292 100.957 216.659Z" fill="white"/>
<path d="M57.6134 210.423L73.5411 192.366L77.7679 196.094L65.0019 210.567L71.7647 216.532L75.0955 213.097C77.316 210.807 79.3112 209 81.081 207.675C82.8085 206.353 84.4843 205.566 86.1084 205.315C87.6902 205.067 89.1573 205.54 90.5099 206.733C91.1411 207.289 91.8095 208.099 92.515 209.163L89.1802 212.534C88.9243 212.188 88.6836 211.916 88.4582 211.717C87.6015 210.961 86.6608 210.733 85.6359 211.031C84.5912 211.352 83.5949 211.936 82.647 212.784C81.6567 213.634 80.331 214.91 78.6699 216.611L72.2212 223.308L57.6134 210.423Z" fill="white"/>
<path d="M51.2443 203.185L48.2505 198.41L61.6978 189.979L41.185 187.14L38.4547 182.785L58.8549 169.995L61.8487 174.77L48.4014 183.201L68.8902 186.002L71.6445 190.395L51.2443 203.185Z" fill="white"/>
<path d="M34.5805 173.772L33.1159 168.329L42.5642 165.787L39.4124 154.074L29.9641 156.617L28.4994 151.174L51.7502 144.917L53.2148 150.36L44.0277 152.832L47.1796 164.545L56.3666 162.072L57.8313 167.515L34.5805 173.772Z" fill="white"/>
<path d="M27.4698 132.861C27.5154 129.314 28.4068 126.62 30.144 124.779C31.8515 122.907 34.4185 121.993 37.8451 122.037L51.957 122.218L51.8886 127.538L48.958 127.501C50.0012 128.205 50.8 129.208 51.3544 130.508C51.8793 131.777 52.1301 133.313 52.1069 135.117C52.0837 136.92 51.7629 138.494 51.1443 139.839C50.4958 141.184 49.6256 142.225 48.5339 142.962C47.4125 143.669 46.1605 144.014 44.7779 143.996C42.6137 143.968 40.8957 143.15 39.6237 141.54C38.322 139.9 37.6934 137.352 37.7378 133.895L37.8178 127.673L37.4571 127.669C35.7738 127.647 34.4748 128.141 33.56 129.152C32.6455 130.132 32.1755 131.614 32.15 133.598C32.1327 134.95 32.3259 136.291 32.7297 137.619C33.1339 138.916 33.7059 140.021 34.4457 140.932L30.3145 143.089C29.3689 141.814 28.652 140.287 28.1638 138.507C27.6756 136.727 27.4443 134.845 27.4698 132.861ZM48.0191 133.892C48.0373 132.479 47.7377 131.228 47.1204 130.138C46.4734 129.017 45.5517 128.223 44.3552 127.757L41.5599 127.721L41.4851 133.537C41.4434 136.784 42.4896 138.42 44.6237 138.448C45.6456 138.461 46.4624 138.066 47.074 137.262C47.6855 136.458 48.0006 135.335 48.0191 133.892Z" fill="white"/>
</svg>
